<mxfile host="Electron" modified="2024-06-01T04:34:47.575Z" agent="Mozilla/5.0 (Windows NT 10.0; Win64; x64) AppleWebKit/537.36 (KHTML, like Gecko) draw.io/21.7.5 Chrome/114.0.5735.289 Electron/25.8.1 Safari/537.36" etag="Z6gNbbhOySJuznPx-1yl" version="21.7.5" type="device">
  <diagram name="Page-1" id="pXsY88CoDvPFY3pwUGUW">
    <mxGraphModel dx="898" dy="535" grid="1" gridSize="10" guides="1" tooltips="1" connect="1" arrows="1" fold="1" page="1" pageScale="1" pageWidth="850" pageHeight="1100" math="0" shadow="0">
      <root>
        <mxCell id="0" />
        <mxCell id="1" parent="0" />
        <mxCell id="F3ubxQ8ZitUvKVbHU5Dk-1" value="" style="strokeWidth=1;shadow=0;dashed=0;align=center;html=1;shape=mxgraph.mockup.containers.browserWindow;rSize=0;strokeColor=#666666;strokeColor2=#008cff;strokeColor3=#c4c4c4;mainText=,;recursiveResize=0;" vertex="1" parent="1">
          <mxGeometry x="85" y="70" width="680" height="760" as="geometry" />
        </mxCell>
        <mxCell id="F3ubxQ8ZitUvKVbHU5Dk-2" value="&lt;font style=&quot;font-size: 8px;&quot;&gt;Running Event New Zealand&lt;/font&gt;" style="strokeWidth=1;shadow=0;dashed=0;align=center;html=1;shape=mxgraph.mockup.containers.anchor;fontSize=17;fontColor=#666666;align=left;whiteSpace=wrap;" vertex="1" parent="F3ubxQ8ZitUvKVbHU5Dk-1">
          <mxGeometry x="60" y="12" width="370" height="26" as="geometry" />
        </mxCell>
        <mxCell id="F3ubxQ8ZitUvKVbHU5Dk-3" value="&lt;font style=&quot;font-size: 10px;&quot;&gt;https://www.runningeventnewzealand.co.nz&lt;/font&gt;" style="strokeWidth=1;shadow=0;dashed=0;align=center;html=1;shape=mxgraph.mockup.containers.anchor;rSize=0;fontSize=17;fontColor=#666666;align=left;" vertex="1" parent="F3ubxQ8ZitUvKVbHU5Dk-1">
          <mxGeometry x="130" y="60" width="250" height="26" as="geometry" />
        </mxCell>
        <mxCell id="F3ubxQ8ZitUvKVbHU5Dk-4" value="" style="rounded=0;whiteSpace=wrap;html=1;" vertex="1" parent="F3ubxQ8ZitUvKVbHU5Dk-1">
          <mxGeometry y="180" width="680" height="60" as="geometry" />
        </mxCell>
        <mxCell id="F3ubxQ8ZitUvKVbHU5Dk-5" value="HOME" style="rounded=0;whiteSpace=wrap;html=1;fillColor=none;strokeColor=none;" vertex="1" parent="F3ubxQ8ZitUvKVbHU5Dk-1">
          <mxGeometry x="40" y="195" width="70" height="30" as="geometry" />
        </mxCell>
        <mxCell id="F3ubxQ8ZitUvKVbHU5Dk-6" value="EVENT" style="rounded=0;whiteSpace=wrap;html=1;strokeColor=none;fillColor=#CCCCCC;" vertex="1" parent="F3ubxQ8ZitUvKVbHU5Dk-1">
          <mxGeometry x="180" y="195" width="65" height="30" as="geometry" />
        </mxCell>
        <mxCell id="F3ubxQ8ZitUvKVbHU5Dk-7" value="DISCUSSION&amp;nbsp;" style="rounded=0;whiteSpace=wrap;html=1;strokeColor=none;" vertex="1" parent="F3ubxQ8ZitUvKVbHU5Dk-1">
          <mxGeometry x="510" y="195" width="60" height="30" as="geometry" />
        </mxCell>
        <mxCell id="F3ubxQ8ZitUvKVbHU5Dk-10" value="&lt;b&gt;&lt;font style=&quot;font-size: 16px;&quot;&gt;Welcome to running event New Zealand&lt;/font&gt;&lt;/b&gt;" style="text;html=1;strokeColor=none;fillColor=none;align=center;verticalAlign=middle;whiteSpace=wrap;rounded=0;" vertex="1" parent="F3ubxQ8ZitUvKVbHU5Dk-1">
          <mxGeometry x="158" y="120" width="365" height="40" as="geometry" />
        </mxCell>
        <mxCell id="F3ubxQ8ZitUvKVbHU5Dk-12" value="Title" style="text;html=1;strokeColor=none;fillColor=none;align=center;verticalAlign=middle;whiteSpace=wrap;rounded=0;" vertex="1" parent="F3ubxQ8ZitUvKVbHU5Dk-1">
          <mxGeometry x="292.5" y="360" width="60" height="30" as="geometry" />
        </mxCell>
        <mxCell id="F3ubxQ8ZitUvKVbHU5Dk-14" value="Ticket" style="text;html=1;strokeColor=none;fillColor=none;align=center;verticalAlign=middle;whiteSpace=wrap;rounded=0;" vertex="1" parent="F3ubxQ8ZitUvKVbHU5Dk-1">
          <mxGeometry x="292.5" y="390" width="60" height="30" as="geometry" />
        </mxCell>
        <mxCell id="F3ubxQ8ZitUvKVbHU5Dk-16" value="&lt;font style=&quot;font-size: 9px;&quot;&gt;Book the event&lt;/font&gt;" style="strokeWidth=1;shadow=0;dashed=0;align=center;html=1;shape=mxgraph.mockup.buttons.button;strokeColor=#666666;fontColor=#ffffff;mainText=;buttonStyle=round;fontSize=17;fontStyle=1;fillColor=#008cff;whiteSpace=wrap;" vertex="1" parent="F3ubxQ8ZitUvKVbHU5Dk-1">
          <mxGeometry x="285" y="470" width="75" height="30" as="geometry" />
        </mxCell>
        <mxCell id="F3ubxQ8ZitUvKVbHU5Dk-21" value="REGISTER/ LOG-IN" style="rounded=0;whiteSpace=wrap;html=1;strokeColor=none;fillColor=#FFFFFF;" vertex="1" parent="F3ubxQ8ZitUvKVbHU5Dk-1">
          <mxGeometry x="300" y="195" width="150" height="30" as="geometry" />
        </mxCell>
        <mxCell id="F3ubxQ8ZitUvKVbHU5Dk-26" value="" style="endArrow=none;html=1;rounded=0;exitX=0;exitY=0.899;exitDx=0;exitDy=0;exitPerimeter=0;entryX=0.997;entryY=0.898;entryDx=0;entryDy=0;entryPerimeter=0;" edge="1" parent="F3ubxQ8ZitUvKVbHU5Dk-1">
          <mxGeometry width="50" height="50" relative="1" as="geometry">
            <mxPoint x="2.0400000000000063" y="690.74" as="sourcePoint" />
            <mxPoint x="680" y="690" as="targetPoint" />
          </mxGeometry>
        </mxCell>
        <mxCell id="F3ubxQ8ZitUvKVbHU5Dk-27" value="Â© Created By Katherine Mulder. All rights reserved" style="text;html=1;strokeColor=none;fillColor=none;align=center;verticalAlign=middle;whiteSpace=wrap;rounded=0;" vertex="1" parent="F3ubxQ8ZitUvKVbHU5Dk-1">
          <mxGeometry x="95" y="700" width="490" height="40" as="geometry" />
        </mxCell>
        <mxCell id="F3ubxQ8ZitUvKVbHU5Dk-30" value="&lt;font color=&quot;#b3b3b3&quot;&gt;&lt;span style=&quot;font-size: 13px;&quot;&gt;&amp;nbsp; &amp;nbsp; 1&lt;/span&gt;&lt;/font&gt;" style="strokeWidth=1;shadow=0;dashed=0;align=left;html=1;shape=mxgraph.mockup.forms.spinner;strokeColor=#999999;spinLayout=right;spinStyle=normal;adjStyle=triangle;fillColor=#CCCCCC;fontSize=17;fontColor=#666666;mainText=;html=1;overflow=fill;" vertex="1" parent="F3ubxQ8ZitUvKVbHU5Dk-1">
          <mxGeometry x="192.5" y="425" width="275" height="20" as="geometry" />
        </mxCell>
      </root>
    </mxGraphModel>
  </diagram>
</mxfile>
